<svg width="17" height="16" viewBox="0 0 17 16" fill="none" xmlns="http://www.w3.org/2000/svg">
<g clip-path="url(#clip0_24_6)">
<path d="M12.1291 10.344C13.0974 9.0227 13.5311 7.3845 13.3434 5.75716C13.1557 4.12982 12.3605 2.63335 11.1169 1.56714C9.87321 0.50093 8.27285 -0.0563875 6.63593 0.00668566C4.99902 0.0697588 3.44628 0.748571 2.28837 1.90732C1.13045 3.06606 0.452748 4.61929 0.390846 6.25624C0.328945 7.8932 0.887407 9.49317 1.95451 10.7361C3.0216 11.9789 4.51864 12.7731 6.14612 12.9596C7.77359 13.1461 9.41148 12.7112 10.7321 11.742H10.7311C10.7611 11.782 10.7931 11.82 10.8291 11.857L14.6791 15.707C14.8666 15.8946 15.121 16.0001 15.3862 16.0002C15.6515 16.0003 15.906 15.895 16.0936 15.7075C16.2812 15.52 16.3867 15.2656 16.3868 15.0004C16.3869 14.7351 16.2816 14.4806 16.0941 14.293L12.2441 10.443C12.2083 10.4068 12.1699 10.3734 12.1291 10.343V10.344ZM12.3871 6.50001C12.3871 7.22228 12.2448 7.93748 11.9684 8.60477C11.692 9.27206 11.2869 9.87837 10.7762 10.3891C10.2655 10.8998 9.65915 11.3049 8.99186 11.5813C8.32457 11.8577 7.60937 12 6.8871 12C6.16483 12 5.44963 11.8577 4.78234 11.5813C4.11505 11.3049 3.50873 10.8998 2.99801 10.3891C2.48729 9.87837 2.08216 9.27206 1.80576 8.60477C1.52936 7.93748 1.3871 7.22228 1.3871 6.50001C1.3871 5.04132 1.96656 3.64237 2.99801 2.61092C4.02946 1.57947 5.42841 1.00001 6.8871 1.00001C8.34579 1.00001 9.74473 1.57947 10.7762 2.61092C11.8076 3.64237 12.3871 5.04132 12.3871 6.50001Z" fill="#A6A39F"/>
</g>
<defs>
<clipPath id="clip0_24_6">
<rect width="16" height="16" fill="white" transform="translate(0.387085)"/>
</clipPath>
</defs>
</svg>
