<svg width="109" height="110" viewBox="0 0 109 110" fill="none" xmlns="http://www.w3.org/2000/svg">
<g clip-path="url(#clip0_101_48)">
<path d="M16.986 12.6042C15.7815 12.6042 14.6263 13.0871 13.7746 13.9466C12.9228 14.8061 12.4443 15.9719 12.4443 17.1875V17.1875V92.8125C12.4443 94.0281 12.9228 95.1939 13.7746 96.0534C14.6263 96.913 15.7815 97.3958 16.986 97.3958H92.0143C93.2189 97.3958 94.3741 96.913 95.2258 96.0534C96.0775 95.1939 96.556 94.0281 96.556 92.8125V17.1875C96.556 15.9719 96.0775 14.8061 95.2258 13.9466C94.3741 13.0871 93.2189 12.6042 92.0143 12.6042H16.986Z" stroke="#53B38D" stroke-linecap="round" stroke-linejoin="round"/>
<path d="M71.1228 27.775C73.1304 27.775 75.0929 28.3758 76.7622 29.5014C78.4314 30.627 79.7325 32.2268 80.5008 34.0986C81.269 35.9704 81.47 38.0301 81.0784 40.0172C80.6867 42.0043 79.72 43.8296 78.3004 45.2622C76.8808 46.6948 75.0721 47.6704 73.1031 48.0657C71.1341 48.4609 69.0931 48.2581 67.2383 47.4827C65.3835 46.7074 63.7982 45.3944 62.6829 43.7099C61.5675 42.0253 60.9722 40.0448 60.9722 38.0187C60.9722 35.3019 62.0416 32.6964 63.9452 30.7753C65.8488 28.8542 68.4307 27.775 71.1228 27.775V27.775ZM45.417 48.125L61.8124 64.6708C61.9604 64.8233 62.137 64.9444 62.332 65.0271C62.527 65.1097 62.7363 65.1523 62.9478 65.1523C63.1593 65.1523 63.3686 65.1097 63.5636 65.0271C63.7586 64.9444 63.9352 64.8233 64.0832 64.6708L67.217 61.5083C67.5189 61.206 67.927 61.0364 68.3524 61.0364C68.7777 61.0364 69.1858 61.206 69.4878 61.5083L87.223 79.4063C87.45 79.6306 87.6052 79.9185 87.6684 80.2328C87.7317 80.547 87.7002 80.8732 87.578 81.1692C87.4558 81.4652 87.2485 81.7175 86.9828 81.8934C86.7171 82.0694 86.4053 82.1609 86.0876 82.1562H22.8903C22.5988 82.1586 22.3122 82.08 22.062 81.929C21.8118 81.7781 21.6075 81.5606 21.4716 81.3003C21.3356 81.0401 21.2732 80.7471 21.2911 80.4535C21.309 80.1599 21.4066 79.8768 21.5732 79.6354L43.1461 48.4229C43.2733 48.2495 43.4339 48.1038 43.6182 47.9945C43.8025 47.8851 44.0068 47.8145 44.2188 47.7866C44.4308 47.7588 44.6462 47.7745 44.852 47.8326C45.0579 47.8907 45.2501 47.9902 45.417 48.125V48.125Z" stroke="#53B38D" stroke-linecap="round" stroke-linejoin="round"/>
<path d="M96.119 28.125C99.5683 28.125 102.876 26.7422 105.315 24.2808C107.754 21.8194 109.125 18.481 109.125 15C109.125 11.519 107.754 8.18064 105.315 5.71922C102.876 3.25781 99.5683 1.875 96.119 1.875C92.6696 1.875 89.3616 3.25781 86.9226 5.71922C84.4835 8.18064 83.1133 11.519 83.1133 15C83.1133 18.481 84.4835 21.8194 86.9226 24.2808C89.3616 26.7422 92.6696 28.125 96.119 28.125ZM95.0042 16.125H90.7309C90.4352 16.125 90.1517 16.0065 89.9426 15.7955C89.7336 15.5845 89.6161 15.2984 89.6161 15C89.6161 14.7016 89.7336 14.4155 89.9426 14.2045C90.1517 13.9935 90.4352 13.875 90.7309 13.875H95.0042V9.5625C95.0042 9.26413 95.1216 8.97798 95.3307 8.767C95.5398 8.55603 95.8233 8.4375 96.119 8.4375C96.4146 8.4375 96.6982 8.55603 96.9072 8.767C97.1163 8.97798 97.2337 9.26413 97.2337 9.5625V13.875H101.507C101.803 13.875 102.086 13.9935 102.295 14.2045C102.504 14.4155 102.622 14.7016 102.622 15C102.622 15.2984 102.504 15.5845 102.295 15.7955C102.086 16.0065 101.803 16.125 101.507 16.125H97.2337V20.4375C97.2337 20.7359 97.1163 21.022 96.9072 21.233C96.6982 21.444 96.4146 21.5625 96.119 21.5625C95.8233 21.5625 95.5398 21.444 95.3307 21.233C95.1216 21.022 95.0042 20.7359 95.0042 20.4375V16.125Z" fill="#53B38D"/>
</g>
<defs>
<clipPath id="clip0_101_48">
<rect width="109" height="110" fill="white"/>
</clipPath>
</defs>
</svg>
