<svg width="35" height="36" viewBox="0 0 35 36" fill="none" xmlns="http://www.w3.org/2000/svg">
<path d="M4.10278 23.0457L2.25555 31.0179C2.19183 31.3093 2.19402 31.6113 2.26195 31.9018C2.32988 32.1923 2.46184 32.4639 2.6482 32.6968C2.83455 32.9298 3.07059 33.1182 3.33907 33.2482C3.60755 33.3782 3.90169 33.4467 4.2 33.4485C4.339 33.4625 4.47906 33.4625 4.61805 33.4485L12.6389 31.6012L28.0389 16.2596L19.4444 7.68457L4.10278 23.0457Z" fill="#53B38D"/>
<path d="M32.8806 8.57928L27.1444 2.84317C26.7673 2.46796 26.257 2.25732 25.725 2.25732C25.193 2.25732 24.6827 2.46796 24.3056 2.84317L21.1167 6.03206L29.7014 14.6168L32.8903 11.4279C33.0769 11.2403 33.2247 11.0178 33.3252 10.7731C33.4257 10.5283 33.477 10.2662 33.4761 10.0016C33.4752 9.73699 33.4222 9.47518 33.32 9.23113C33.2178 8.98707 33.0685 8.76557 32.8806 8.57928Z" fill="#53B38D"/>
</svg>
