<svg width="308" height="291" viewBox="0 0 308 291" fill="none" xmlns="http://www.w3.org/2000/svg">
<path d="M6.43691 197.514C22.1462 204.999 32.3673 215.068 39 225.203L37.8963 236.566L42.0341 230.275C52.3539 249.229 48.8913 267.21 48.8913 267.21L44.9474 267.181C25.4489 267.045 8.86719 250.185 6.10527 227.449C6.07466 227.208 6.04745 226.968 6.02024 226.727L13.2499 225.612L5.51173 220.691C4.79064 207.812 6.43691 197.514 6.43691 197.514Z" fill="#1C0E0C"/>
<path d="M4.1035 198.007C19.8145 205.492 30.0339 215.561 36.6734 225.706L35.5714 237.067L39.7075 230.776C50.029 249.73 48.8725 267.484 48.8725 267.484L42.8112 267.506C23.2635 267.582 6.54909 250.746 3.77867 227.952C3.74976 227.709 3.72084 227.469 3.69363 227.228L10.925 226.113L3.18513 221.196C2.45893 208.305 4.1035 198.007 4.1035 198.007Z" fill="#53B38D" stroke="black" stroke-width="6" stroke-linecap="round" stroke-linejoin="round"/>
<path d="M3.95392 229.31L28.8214 243.918" stroke="#070707" stroke-width="6" stroke-linecap="round" stroke-linejoin="round"/>
<path d="M20.2686 230.752L19.6699 207.469" stroke="#070707" stroke-width="6" stroke-linecap="round" stroke-linejoin="round"/>
<path d="M4.10358 198.007C4.10358 198.007 19.1122 239.233 48.8726 267.484" stroke="#070707" stroke-width="6" stroke-linecap="round" stroke-linejoin="round"/>
<path d="M305 94.9844C305 94.9844 294.76 94.6117 299.277 114.657C303.794 134.703 284.886 132.728 281.507 142.292C279.7 147.406 289.195 172.505 272.93 181.382C259.559 188.68 245.153 196.223 241.493 212.618L237.386 171.513C237.386 171.513 234.248 152.882 248.375 148.649C269.558 142.292 258.239 127.03 264.037 118.135C270.406 108.379 280.335 114.758 284.399 108.595C287.381 104.084 291.41 87.0971 305 94.9844Z" fill="#53B38D" stroke="black" stroke-width="6" stroke-linecap="round" stroke-linejoin="round"/>
<path d="M304.968 94.9842C304.759 94.9862 304.552 95.0036 304.345 95.0363C302.787 94.8821 298.571 94.7499 295.911 97.3743C294.406 98.8608 293.614 101.024 293.558 103.805C293.44 109.603 293.07 113.493 291.517 116.226C289.917 119.053 287.126 120.547 282.182 121.224C277.42 121.875 273.848 123.969 271.808 127.277C269.937 130.32 269.394 134.405 270.219 139.096C270.959 143.303 271.384 149.514 269.211 155.294C266.84 161.588 261.947 165.972 254.666 168.315C250.724 169.588 247.46 171.509 244.972 174.025C243.036 175.955 241.505 178.386 240.498 181.129C238.823 185.723 239.241 189.671 239.246 189.711H239.204L238.755 185.222C238.981 183.703 239.356 182.221 239.874 180.804C240.923 177.953 242.518 175.425 244.534 173.42C247.105 170.828 250.457 168.85 254.498 167.548C271.003 162.223 271.022 147.541 269.564 139.261C268.7 134.35 269.289 130.045 271.265 126.816C273.406 123.32 277.156 121.114 282.105 120.435C286.831 119.788 289.476 118.398 290.949 115.787C292.401 113.219 292.752 109.445 292.867 103.793C292.928 100.772 293.803 98.406 295.466 96.7672C296.486 95.7656 298.389 94.4934 301.61 94.221C302.219 94.17 302.829 94.1553 303.439 94.1769C303.942 94.4073 304.447 94.6717 304.968 94.9842Z" fill="#070707"/>
<path d="M45.4031 204.526C45.4031 204.526 24.0186 205.728 21.0015 182.014C18.2209 160.166 31.3979 153.034 22.1359 144.784C12.8739 136.534 7.25656 130.125 11.5185 119.505C15.4301 109.747 13.1001 103.539 7.22595 105.402C7.22595 105.402 14.0287 94.6857 23.5662 103.312C32.4523 111.344 22.2294 126.241 33.9574 126.423C45.4031 126.601 53.9882 131.536 52.2841 147.659C51.631 153.821 47.8282 162.502 54.0256 171.751C62.7008 184.701 45.4031 204.526 45.4031 204.526Z" stroke="#070707" stroke-width="6" stroke-linecap="round" stroke-linejoin="round"/>
<path d="M6.99976 105.133C6.99976 105.133 24.1682 95.9561 20.5543 118.45C17.3553 138.359 34.4659 129.751 39.0782 146.635C43.3707 162.348 34.42 188.998 52.3861 194.179" stroke="#070707" stroke-width="6" stroke-linecap="round" stroke-linejoin="round"/>
<path d="M298.643 187.907C294.116 207.139 286.786 220.247 278.983 229.176H269.274L275.056 233.303C260.243 247.527 244.685 245.523 244.685 245.523L242.52 221.984C247.294 203.078 261.188 194.538 273.956 190.749L275.719 199.085L278.988 189.469C289.772 187.151 298.643 187.907 298.643 187.907Z" fill="#1C0E0C"/>
<path d="M297.962 185.232C293.435 204.464 286.104 217.574 278.302 226.501H268.593L274.376 230.63C259.563 244.854 244.457 245.525 244.457 245.525L241.838 219.313C246.613 200.407 260.506 191.877 273.275 188.077L275.037 196.413L278.308 186.797C289.09 184.477 297.962 185.232 297.962 185.232Z" fill="#F5F5DC" stroke="#070707" stroke-width="6" stroke-linecap="round" stroke-linejoin="round"/>
<path d="M243.534 236.324L297.962 185.232" stroke="#070707" stroke-width="6" stroke-linecap="round" stroke-linejoin="round"/>
<path d="M271.544 188.614L262.01 218.979" stroke="#070707" stroke-width="6" stroke-linecap="round" stroke-linejoin="round"/>
<path d="M275.461 206.346L291.752 204.527" stroke="#070707" stroke-width="6" stroke-linecap="round" stroke-linejoin="round"/>
<path d="M246.336 233.531L274.371 230.626" stroke="#070707" stroke-width="6" stroke-linecap="round" stroke-linejoin="round"/>
<path d="M33.3843 41.6446H94.7027V6.51953H33.3843L41.3282 24.0831L33.3843 41.6446Z" fill="#1C0E0C"/>
<path d="M35.3128 39.2388H96.6329V4.11377H35.3128L43.2567 21.6773L35.3128 39.2388Z" fill="#F5F5DC" stroke="#070707" stroke-width="6" stroke-linecap="round" stroke-linejoin="round"/>
<path d="M96.6312 4.11377V147.34" stroke="#070707" stroke-width="8" stroke-linecap="round" stroke-linejoin="round"/>
<path d="M221.644 55.1172L202.62 245.521H96.8796L115.902 55.1172H221.644Z" fill="#F5F5DC"/>
<path d="M244.452 245.521H198.95L218.239 52.4429H225.163L244.452 245.521Z" stroke="#070707" stroke-width="6" stroke-linecap="round" stroke-linejoin="round"/>
<path d="M218.239 52.4429L198.95 245.521H93.2078L112.499 52.4429H218.239Z" stroke="#070707" stroke-width="6" stroke-linecap="round" stroke-linejoin="round"/>
<path d="M176.416 15.7231C180.921 15.7231 185.241 17.8313 188.427 21.5838C191.613 25.3364 193.402 30.4259 193.402 35.7327V52.4428H159.424V35.7327C159.424 33.1045 159.864 30.5021 160.718 28.074C161.572 25.6459 162.823 23.4398 164.401 21.5817C165.979 19.7236 167.852 18.2498 169.914 17.2446C171.975 16.2393 174.185 15.7224 176.416 15.7231Z" fill="#F5F5DC" stroke="#070707" stroke-width="6" stroke-linecap="round" stroke-linejoin="round"/>
<path d="M164.95 15.7231C169.455 15.7231 173.775 17.8313 176.961 21.5838C180.147 25.3364 181.936 30.4259 181.936 35.7327V52.4428H147.963V35.7327C147.963 30.4259 149.753 25.3364 152.939 21.5838C156.124 17.8313 160.445 15.7231 164.95 15.7231V15.7231Z" stroke="#070707" stroke-width="6" stroke-linecap="round" stroke-linejoin="round"/>
<path d="M204.743 111.39H189.254L191.227 84.815C191.601 79.7765 195.372 75.6917 199.651 75.6917C203.928 75.6917 207.091 79.7765 206.717 84.815L204.743 111.39Z" fill="#F5F5DC"/>
<path d="M203.382 109.785H187.892L189.867 83.2102C190.241 78.1718 194.011 74.0869 198.288 74.0869C202.566 74.0869 205.729 78.1718 205.355 83.2102L203.382 109.785Z" stroke="#070707" stroke-width="6" stroke-linecap="round" stroke-linejoin="round"/>
<path d="M198.831 82.8569C199.527 82.0728 199.596 80.8288 198.986 80.0785C198.376 79.3281 197.318 79.3554 196.623 80.1395C195.928 80.9237 195.858 82.1676 196.468 82.918C197.078 83.6684 198.136 83.641 198.831 82.8569Z" stroke="#070707" stroke-width="6" stroke-linecap="round" stroke-linejoin="round"/>
<path d="M197.792 80.7702L200.003 51.0703C200.077 50.0629 200.47 49.1251 201.102 48.4419C201.735 47.7587 202.563 47.3798 203.421 47.3801C203.872 47.3799 204.318 47.4842 204.734 47.6871C205.151 47.8901 205.529 48.1877 205.848 48.5629C206.166 48.9382 206.419 49.3837 206.592 49.8741C206.764 50.3645 206.853 50.8901 206.853 51.4209V52.4446" stroke="#070707" stroke-width="6" stroke-linecap="round" stroke-linejoin="round"/>
<path d="M196.768 100.193C197.163 100.119 197.529 99.9054 197.817 99.5796C198.067 99.2939 198.221 98.9121 198.251 98.5038C198.276 98.3209 198.265 98.1338 198.218 97.9569C198.171 97.78 198.091 97.6182 197.982 97.4841C197.701 97.2024 197.371 96.9972 197.015 96.8831L196.219 96.6026C195.737 96.451 195.269 96.2408 194.824 95.9756C194.461 95.7534 194.16 95.4134 193.957 94.9959C193.736 94.4924 193.653 93.9206 193.719 93.3592C193.762 92.5425 194.071 91.7768 194.581 91.2216C195.092 90.6646 195.795 90.3414 196.69 90.252H197.506C197.904 90.2899 198.295 90.4021 198.663 90.5845C198.98 90.7525 199.257 91.0131 199.465 91.3418C199.63 91.5826 199.761 91.8532 199.853 92.1431C199.934 92.381 199.968 92.6368 199.955 92.8924C199.936 93.1457 199.834 93.3805 199.671 93.5475C199.512 93.726 199.301 93.825 199.081 93.824C198.661 93.824 198.401 93.5575 198.324 93.0226C198.289 92.7294 198.182 92.4544 198.017 92.2311C197.852 92.0078 197.636 91.8457 197.394 91.7645L196.579 91.7344C196.261 91.8319 195.962 92.0021 195.7 92.2353C195.586 92.3529 195.494 92.4971 195.43 92.6589C195.366 92.8207 195.331 92.9964 195.328 93.1749C195.304 93.3352 195.311 93.4998 195.348 93.6565C195.386 93.8132 195.452 93.958 195.544 94.0804C195.782 94.3305 196.062 94.5201 196.365 94.6373L197.161 94.9178C197.679 95.0901 198.091 95.247 198.396 95.3886C198.698 95.5191 198.973 95.7224 199.205 95.9856C199.45 96.2643 199.636 96.6076 199.746 96.9873C199.862 97.3957 199.903 97.8287 199.867 98.2574C199.824 98.833 199.665 99.3881 199.402 99.8761C199.126 100.388 198.747 100.811 198.297 101.106C197.796 101.436 197.239 101.631 196.666 101.675L195.848 101.691C195.403 101.641 194.968 101.5 194.564 101.274C194.227 101.081 193.927 100.808 193.683 100.473C193.469 100.185 193.304 99.8502 193.2 99.4875C193.107 99.1655 193.072 98.8246 193.095 98.4858C193.117 98.232 193.22 97.9977 193.384 97.8307C193.551 97.6401 193.775 97.535 194.008 97.5382C194.177 97.5303 194.344 97.5865 194.484 97.6985C194.611 97.8051 194.698 97.9651 194.727 98.1452C194.79 98.4673 194.867 98.785 194.96 99.0968C195.034 99.3248 195.15 99.5302 195.3 99.6978C195.489 99.8973 195.716 100.04 195.962 100.115L196.768 100.193Z" fill="#1C0E0C"/>
<path d="M196.173 102.797H196.144C196.099 102.793 196.056 102.778 196.016 102.754C195.976 102.729 195.941 102.696 195.912 102.656C195.884 102.615 195.862 102.569 195.849 102.518C195.835 102.468 195.83 102.415 195.834 102.363L196.809 89.2346C196.813 89.182 196.825 89.1308 196.846 89.0839C196.867 89.0371 196.895 88.9955 196.929 88.9615C196.964 88.9276 197.003 88.9019 197.046 88.886C197.089 88.8702 197.134 88.8644 197.179 88.869C197.223 88.8736 197.267 88.8885 197.307 88.9129C197.346 88.9373 197.382 88.9706 197.41 89.0111C197.439 89.0516 197.461 89.0983 197.475 89.1487C197.488 89.1991 197.493 89.2521 197.489 89.3047L196.515 102.433C196.507 102.533 196.467 102.626 196.404 102.694C196.341 102.761 196.258 102.798 196.173 102.797Z" fill="#1C0E0C"/>
<path d="M91.303 147.847H78.956C78.956 147.847 67.0937 135.472 61.91 128.174C61.2023 127.17 60.5556 126.109 59.9746 124.999C57.5698 120.405 60.3487 114.481 64.9304 114.451H65.0631C77.5955 114.451 91.3098 141.194 91.303 147.847Z" fill="#1C0E0C"/>
<path d="M98.1109 147.847H89.4238C89.4238 147.847 81.0802 139.142 77.4356 134.006C76.9374 133.3 76.4827 132.554 76.075 131.772C75.6915 131.038 75.4807 130.196 75.464 129.334C75.4474 128.472 75.6255 127.621 75.9803 126.866C76.335 126.112 76.8536 125.482 77.4829 125.042C78.1121 124.602 78.8295 124.366 79.5614 124.36H79.6465C88.4663 124.352 98.116 143.167 98.1109 147.847Z" fill="#F5F5DC"/>
<path d="M72.2859 100.479C93.0684 100.223 100.298 135.208 99.8371 147.847H91.303C91.303 141.194 77.5955 114.451 65.0631 114.451C60.6175 114.451 57.9984 119.117 59.3386 123.342C59.3386 123.342 50.7246 100.746 72.2859 100.479Z" fill="#53B38D" stroke="black" stroke-width="6" stroke-linecap="round" stroke-linejoin="round"/>
<path d="M152.128 141.935C153.871 137.015 151.524 131.345 147.177 129.8C127.021 122.638 106.412 147.847 106.412 147.847H93.2078C93.2078 147.847 111.932 111.123 143.106 116.582C149.931 117.776 158.899 125.519 152.128 141.935Z" fill="#53B38D" stroke="black" stroke-width="6" stroke-linecap="round" stroke-linejoin="round"/>
<path d="M152.096 142.019C151.159 144.599 150.013 147.015 149.205 147.847H137.744C137.744 147.847 140.489 146.753 143.138 142.019C146.358 136.271 144.868 129.157 140.455 128.671C142.72 128.753 144.975 129.017 147.183 129.801C151.548 131.355 153.899 137.079 152.096 142.019Z" fill="#1C0E0C"/>
<path d="M161.348 147.446H68.762C64.6978 147.446 61.4031 151.327 61.4031 156.115V265.178C61.4031 269.966 64.6978 273.847 68.762 273.847H161.348C165.412 273.847 168.707 269.966 168.707 265.178V156.115C168.707 151.327 165.412 147.446 161.348 147.446Z" fill="#53B38D" stroke="black" stroke-width="6" stroke-linecap="round" stroke-linejoin="round"/>
<path d="M142.45 147.446H52.762C48.6978 147.446 45.4031 151.327 45.4031 156.115V265.178C45.4031 269.966 48.6978 273.847 52.762 273.847H142.45C146.514 273.847 149.808 269.966 149.808 265.178V156.115C149.808 151.327 146.514 147.446 142.45 147.446Z" fill="#F5F5DC" stroke="#070707" stroke-width="6" stroke-linecap="round" stroke-linejoin="round"/>
<path d="M89.9594 162.79C89.0226 161.686 87.8289 160.934 86.5293 160.629C85.2296 160.324 83.8825 160.481 82.6582 161.078C81.4338 161.675 80.3874 162.687 79.6512 163.985C78.915 165.282 78.5221 166.808 78.5223 168.369V191.36H91.922V168.369C91.9233 167.333 91.7505 166.306 91.4137 165.349C91.0769 164.391 90.5826 163.522 89.9594 162.79ZM85.223 168.6C84.9367 168.6 84.6567 168.501 84.4185 168.313C84.1802 168.126 83.9945 167.86 83.8847 167.549C83.7749 167.237 83.746 166.894 83.8016 166.564C83.8573 166.233 83.995 165.929 84.1973 165.69C84.3996 165.451 84.6575 165.289 84.9383 165.223C85.2191 165.157 85.5102 165.191 85.7748 165.32C86.0393 165.449 86.2654 165.667 86.4246 165.948C86.5837 166.228 86.6686 166.558 86.6686 166.895C86.669 167.119 86.632 167.341 86.5596 167.548C86.4871 167.755 86.3807 167.944 86.2465 168.102C86.1122 168.261 85.9527 168.387 85.7771 168.473C85.6015 168.559 85.4132 168.604 85.223 168.604V168.6Z" fill="#F5F5DC"/>
<path d="M89.0512 161.319C88.1141 160.215 86.92 159.463 85.6198 159.158C84.3197 158.854 82.9721 159.01 81.7476 159.608C80.5231 160.206 79.4767 161.219 78.7409 162.518C78.0051 163.816 77.6129 165.343 77.6141 166.905V189.895H91.0138V166.905C91.0158 165.867 90.8433 164.84 90.5065 163.881C90.1697 162.922 89.6751 162.052 89.0512 161.319ZM84.3148 167.129C84.0289 167.129 83.7494 167.029 83.5117 166.842C83.274 166.655 83.0887 166.389 82.9793 166.078C82.8698 165.767 82.8412 165.424 82.897 165.094C82.9528 164.764 83.0904 164.46 83.2926 164.222C83.4948 163.984 83.7524 163.822 84.0328 163.756C84.3132 163.69 84.6039 163.724 84.868 163.853C85.1322 163.982 85.3579 164.2 85.5168 164.48C85.6756 164.76 85.7604 165.089 85.7604 165.426C85.7606 165.65 85.7234 165.872 85.6509 166.079C85.5783 166.286 85.4719 166.474 85.3377 166.632C85.2035 166.791 85.044 166.917 84.8685 167.003C84.693 167.088 84.5049 167.133 84.3148 167.133V167.129Z" stroke="#070707" stroke-width="6" stroke-linecap="round" stroke-linejoin="round"/>
<path d="M84.3149 164.787V147.051C84.3147 146.533 84.4011 146.02 84.5693 145.541C84.7375 145.062 84.9841 144.627 85.2951 144.261C85.606 143.894 85.9753 143.604 86.3817 143.405C86.7881 143.207 87.2236 143.105 87.6635 143.105V143.105C88.5521 143.105 89.4043 143.521 90.0326 144.261C90.6609 145.001 91.0139 146.005 91.0139 147.051V147.452" stroke="#070707" stroke-width="6" stroke-linecap="round" stroke-linejoin="round"/>
<path d="M87.0378 178.807C86.917 178.477 86.7358 178.183 86.5071 177.946C86.2938 177.716 86.0458 177.535 85.7758 177.413C85.502 177.291 85.1347 177.156 84.6755 177.012H84.6432V174.279H84.6755C84.8918 174.352 85.0878 174.49 85.2433 174.682C85.3988 174.873 85.5081 175.11 85.5599 175.367C85.6687 175.832 85.9 176.062 86.2673 176.062C86.3589 176.064 86.4498 176.044 86.5346 176.003C86.6193 175.962 86.6962 175.901 86.7605 175.824C86.8252 175.751 86.8764 175.663 86.9112 175.565C86.946 175.468 86.9636 175.363 86.9629 175.257C86.9568 175.032 86.9104 174.811 86.8269 174.608C86.7301 174.357 86.6029 174.125 86.4493 173.917C86.2471 173.634 85.9922 173.41 85.7044 173.262C85.3787 173.105 85.0346 173.008 84.684 172.973H84.6517V172.142C84.6517 172.036 84.6159 171.934 84.5521 171.859C84.4883 171.783 84.4018 171.741 84.3115 171.741C84.2213 171.741 84.1348 171.783 84.071 171.859C84.0072 171.934 83.9714 172.036 83.9714 172.142V172.975C83.2061 173.054 82.6211 173.333 82.2163 173.813C82.0132 174.056 81.8543 174.345 81.7493 174.663C81.6444 174.981 81.5955 175.321 81.6057 175.662C81.5874 176.16 81.6964 176.652 81.9187 177.076C82.1209 177.439 82.4015 177.732 82.7316 177.926C83.129 178.153 83.5442 178.334 83.9714 178.467V181.514C83.7535 181.449 83.551 181.326 83.3796 181.155C83.2365 181.011 83.1206 180.834 83.0394 180.634C82.9396 180.365 82.8522 180.091 82.7775 179.811C82.7383 179.653 82.6535 179.516 82.5377 179.424C82.4118 179.328 82.2641 179.28 82.1143 179.286C82.0176 179.283 81.9215 179.304 81.8322 179.347C81.7429 179.391 81.6623 179.456 81.5955 179.538C81.5305 179.612 81.4786 179.7 81.4427 179.797C81.4068 179.894 81.3876 179.999 81.3864 180.105C81.3886 180.404 81.4412 180.7 81.5411 180.975C81.658 181.29 81.8209 181.579 82.0224 181.828C82.2548 182.114 82.5306 182.345 82.8353 182.511C83.1932 182.705 83.5761 182.827 83.968 182.872V183.499C83.968 183.605 84.0038 183.707 84.0676 183.782C84.1314 183.857 84.2179 183.9 84.3081 183.9C84.3983 183.9 84.4849 183.857 84.5487 183.782C84.6124 183.707 84.6483 183.605 84.6483 183.499V182.86H84.6806C85.1651 182.825 85.6357 182.656 86.0548 182.367C86.4244 182.113 86.7279 181.744 86.9323 181.301C87.1307 180.871 87.2331 180.389 87.2299 179.899C87.2307 179.523 87.1653 179.151 87.0378 178.807ZM83.218 176.283C83.0558 176.058 82.9681 175.772 82.9712 175.478C82.9743 175.183 83.068 174.9 83.235 174.68C83.4469 174.477 83.6934 174.33 83.9578 174.249V176.762C83.6874 176.659 83.4362 176.497 83.218 176.283ZM85.5377 181.051C85.3059 181.335 85.0012 181.523 84.6704 181.584H84.6381V178.703H84.6704C84.9906 178.806 85.2893 178.986 85.5479 179.232C85.6492 179.344 85.7283 179.481 85.7797 179.634C85.8312 179.786 85.8536 179.95 85.8456 180.113C85.8515 180.46 85.743 180.796 85.5428 181.051H85.5377Z" fill="#1C0E0C"/>
<path d="M237.542 271.018C240.508 271.018 242.913 268.186 242.913 264.692C242.913 261.198 240.508 258.365 237.542 258.365C234.576 258.365 232.171 261.198 232.171 264.692C232.171 268.186 234.576 271.018 237.542 271.018Z" fill="#F5F5DC" stroke="#070707" stroke-width="6" stroke-linecap="round" stroke-linejoin="round"/>
<path d="M254.076 135.274C255.329 135.274 256.345 134.077 256.345 132.601C256.345 131.125 255.329 129.929 254.076 129.929C252.823 129.929 251.807 131.125 251.807 132.601C251.807 134.077 252.823 135.274 254.076 135.274Z" fill="#F5F5DC" stroke="#070707" stroke-width="6" stroke-linecap="round" stroke-linejoin="round"/>
<path d="M245.202 276.244C246.142 276.244 246.904 275.349 246.904 274.243C246.904 273.138 246.142 272.242 245.202 272.242C244.262 272.242 243.5 273.138 243.5 274.243C243.5 275.349 244.262 276.244 245.202 276.244Z" fill="#F4F1ED" stroke="#070707" stroke-width="6" stroke-linecap="round" stroke-linejoin="round"/>
<path d="M37.7925 213.304C38.7327 213.304 39.4949 212.408 39.4949 211.303C39.4949 210.198 38.7327 209.302 37.7925 209.302C36.8523 209.302 36.0901 210.198 36.0901 211.303C36.0901 212.408 36.8523 213.304 37.7925 213.304Z" fill="#C5DCDD"/>
<path d="M222.411 242.007H106.687V287.374H222.411V242.007Z" fill="#F5F5DC" stroke="#070707" stroke-width="6" stroke-linecap="round" stroke-linejoin="round"/>
<path d="M200.753 242.007H92.5206V287.374H200.753V242.007Z" fill="#F5F5DC" stroke="#070707" stroke-width="6" stroke-linecap="round" stroke-linejoin="round"/>
<path d="M222.794 229.021H92.2248V245.082H222.794V229.021Z" fill="#1C0E0C"/>
<path d="M227.215 225.946H101.883V242.007H227.215V225.946Z" fill="#F5F5DC" stroke="#070707" stroke-width="6" stroke-linecap="round" stroke-linejoin="round"/>
<path d="M205.244 225.946H88.0258V242.007H205.244V225.946Z" fill="#F5F5DC" stroke="#070707" stroke-width="6" stroke-linecap="round" stroke-linejoin="round"/>
<path d="M208.788 213.869C208.709 214.971 207.023 220.224 207.023 220.224L120.895 216.788V211.125C120.895 201.633 123.633 193.435 125.084 189.875C127.32 184.378 130.417 185.748 130.417 185.748C130.417 185.748 138.841 195.446 148.288 195.446C150.11 195.446 151.416 194.311 152.346 192.658C152.904 191.633 153.338 190.522 153.637 189.356C154.03 187.839 154.307 186.282 154.463 184.706C154.534 184.039 154.74 183.402 155.064 182.849C155.388 182.295 155.82 181.842 156.325 181.528C156.829 181.213 157.39 181.046 157.961 181.042C158.532 181.037 159.095 181.195 159.603 181.501C163.312 183.747 167.815 188.773 179.868 196.446C180.474 196.833 181.097 197.225 181.739 197.622C196.409 206.705 208.632 203.324 208.788 213.869Z" fill="#F5F5DC" stroke="#070707" stroke-width="6" stroke-linecap="round" stroke-linejoin="round"/>
<path d="M199.103 225.243C201.598 225.243 204.639 223.913 206.273 221.761C207.908 219.61 209.28 215.683 208.513 211.464H208.445C207.622 216.673 203.656 219.227 200.673 219.227L126.002 216.647C123.686 216.647 121.705 214.763 120.9 212.097V218.005C120.9 222.012 123.361 225.243 126.398 225.243H199.103Z" fill="#F5F5DC" stroke="#070707" stroke-width="6" stroke-linecap="round" stroke-linejoin="round"/>
<path d="M152.348 192.658C151.693 195.737 147.448 199.017 135.132 194.713C124.875 191.129 120.895 206.187 120.895 212.097V211.123C120.895 201.631 123.633 193.433 125.084 189.873C127.32 184.376 130.417 185.746 130.417 185.746C130.417 185.746 138.841 195.445 148.288 195.445C150.11 195.445 151.416 194.309 152.346 192.656L152.348 192.658Z" fill="#53B38D" stroke="black" stroke-width="6" stroke-linecap="round" stroke-linejoin="round"/>
<path d="M183.149 198.468C164.496 190.953 155.161 187.552 153.637 189.355C154.03 187.837 154.307 186.281 154.463 184.705C154.534 184.038 154.74 183.4 155.064 182.847C155.388 182.294 155.82 181.841 156.325 181.526C156.829 181.211 157.39 181.045 157.961 181.04C158.532 181.035 159.095 181.193 159.603 181.499C163.321 183.753 169.513 190.432 183.149 198.468Z" fill="#F5F5DC" stroke="#070707" stroke-width="6" stroke-linecap="round" stroke-linejoin="round"/>
<path d="M164.103 190.957L166.521 186.626C166.662 186.373 166.846 186.156 167.06 185.989C167.274 185.822 167.515 185.708 167.768 185.654C168.021 185.601 168.281 185.608 168.531 185.676C168.782 185.744 169.018 185.872 169.225 186.051V186.051C169.597 186.371 169.857 186.839 169.957 187.368C170.057 187.897 169.989 188.451 169.768 188.926L169.446 189.619" stroke="#070707" stroke-width="6" stroke-linecap="round" stroke-linejoin="round"/>
<path d="M169.649 192.84L171.361 189.685C171.484 189.464 171.645 189.276 171.832 189.13C172.019 188.984 172.23 188.885 172.451 188.838C172.672 188.791 172.899 188.797 173.117 188.857C173.336 188.916 173.542 189.027 173.724 189.183V189.183C174.048 189.463 174.275 189.871 174.362 190.332C174.449 190.793 174.39 191.276 174.196 191.69L173.914 192.29" stroke="#070707" stroke-width="6" stroke-linecap="round" stroke-linejoin="round"/>
<path d="M178.156 195.3C178.36 194.862 178.422 194.351 178.33 193.863C178.238 193.375 177.998 192.943 177.656 192.647V192.647C177.464 192.482 177.245 192.365 177.014 192.302C176.782 192.24 176.542 192.233 176.309 192.283C176.075 192.333 175.852 192.438 175.654 192.592C175.456 192.746 175.286 192.946 175.156 193.179L174.072 194.848" stroke="#070707" stroke-width="6" stroke-linecap="round" stroke-linejoin="round"/>
<path d="M183.115 198.448C178.714 199.386 174.626 201.767 171.322 205.318C168.018 208.87 165.631 213.446 164.436 218.523L160.999 218.387C162.09 213.156 164.285 208.335 167.38 204.37C170.475 200.405 174.37 197.424 178.703 195.705C179.084 195.952 179.472 196.201 179.868 196.452C180.474 196.84 181.097 197.232 181.739 197.628C182.198 197.915 182.659 198.185 183.115 198.448Z" fill="#53B38D" stroke="black" stroke-width="6" stroke-linecap="round" stroke-linejoin="round"/>
<path d="M191.634 202.336V202.867C187.254 202.873 182.97 204.382 179.307 207.211C175.644 210.039 172.76 214.063 171.008 218.792L167.436 218.648C168.929 214.002 171.359 209.854 174.518 206.563C177.677 203.272 181.469 200.937 185.566 199.76C187.548 200.745 189.574 201.605 191.634 202.336Z" fill="#53B38D" stroke="black" stroke-width="6" stroke-linecap="round" stroke-linejoin="round"/>
</svg>
