<svg width="29" height="28" viewBox="0 0 29 28" fill="none" xmlns="http://www.w3.org/2000/svg">
<path d="M6.33333 3.5H22.6667C23.2855 3.5 23.879 3.74583 24.3166 4.18342C24.7542 4.621 25 5.21449 25 5.83333V22.1667C25 22.7855 24.7542 23.379 24.3166 23.8166C23.879 24.2542 23.2855 24.5 22.6667 24.5H6.33333C5.71449 24.5 5.121 24.2542 4.68342 23.8166C4.24583 23.379 4 22.7855 4 22.1667V5.83333C4 5.21449 4.24583 4.621 4.68342 4.18342C5.121 3.74583 5.71449 3.5 6.33333 3.5ZM21.5 5.83333H18.5833C17.5004 5.83333 16.4618 6.26354 15.696 7.02931C14.9302 7.79509 14.5 8.8337 14.5 9.91667V12.8333H12.1667V16.3333H14.5V24.5H18V16.3333H21.5V12.8333H18V10.5C18 10.1906 18.1229 9.89383 18.3417 9.67504C18.5605 9.45625 18.8572 9.33333 19.1667 9.33333H21.5V5.83333Z" fill="#53B38D"/>
</svg>
