<svg width="37" height="40" viewBox="0 0 37 40" fill="none" xmlns="http://www.w3.org/2000/svg">
<path d="M11.1452 12V9.00005C11.1452 8.31205 11.2647 7.66605 11.5037 7.06205C11.7427 6.44805 12.0737 5.91605 12.4948 5.46805C12.9066 5.01005 13.3957 4.65005 13.9602 4.39005C14.5155 4.13005 15.1094 4.00005 15.7419 4.00005C16.2586 4.00005 16.7514 4.08805 17.2221 4.26605C17.6928 4.44405 18.1231 4.69405 18.5147 5.01605C19.3008 4.35688 20.2655 3.9996 21.2581 4.00005C22.164 3.99566 23.0508 4.28444 23.8055 4.82968C24.5601 5.37493 25.1487 6.15199 25.4963 7.06205C25.7353 7.66605 25.8548 8.31205 25.8548 9.00005V12H27.6935C28.1812 12 28.6489 12.2108 28.9937 12.5858C29.3385 12.9609 29.5323 13.4696 29.5323 14V30C29.5323 30.834 29.3888 31.6141 29.102 32.3441C28.8152 33.0621 28.4217 33.698 27.9234 34.25C27.5924 34.602 27.2302 34.906 26.8312 35.162L25.7463 34.6501L24.8362 34.208L24.4464 33.974L24.0382 33.6441L23.5951 33.2201L23.1023 32.648C22.4999 31.9226 22.1699 30.9776 22.1774 30V12H24.0161V9.00005C24.0161 8.58405 23.9444 8.19205 23.801 7.82805C23.5929 7.2824 23.2396 6.81685 22.7865 6.49114C22.3334 6.16542 21.8011 5.99441 21.2581 6.00005C20.6936 6.00005 20.1861 6.17205 19.7356 6.51605C20.1319 7.27288 20.3398 8.12908 20.3387 9.00005V30C20.3309 31.4782 20.8336 32.9057 21.7472 34L22.3153 34.66L22.8816 35.2001L23.4498 35.66L24.0161 36H12.9839C11.5246 35.9997 10.125 35.3705 9.09132 34.25C8.58679 33.7025 8.18247 33.0557 7.89983 32.3441C7.60935 31.6033 7.46226 30.8054 7.46774 30V14C7.46774 13.4696 7.66146 12.9609 8.00628 12.5858C8.35111 12.2108 8.81879 12 9.30645 12H11.1452ZM12.9839 12H18.5V9.00005C18.5 8.58405 18.4283 8.19205 18.2849 7.82805C18.0767 7.2824 17.7235 6.81685 17.2704 6.49114C16.8173 6.16542 16.285 5.99441 15.7419 6.00005C15.3595 6.00005 14.9991 6.07805 14.6644 6.23405C14.1628 6.46044 13.7348 6.84471 13.4353 7.33755C13.1359 7.8304 12.9787 8.40933 12.9839 9.00005V12Z" fill="#53B38D"/>
</svg>
