<svg width="29" height="28" viewBox="0 0 29 28" fill="none" xmlns="http://www.w3.org/2000/svg">
<g clip-path="url(#clip0_116_676)">
<path d="M14.5062 6.92483C10.5312 6.92483 7.32498 10.081 7.32498 13.9939C7.32498 17.9067 10.5312 21.0629 14.5062 21.0629C18.4812 21.0629 21.6874 17.9067 21.6874 13.9939C21.6874 10.081 18.4812 6.92483 14.5062 6.92483ZM14.5062 18.5896C11.9375 18.5896 9.83747 16.5286 9.83747 13.9939C9.83747 11.4591 11.9312 9.39807 14.5062 9.39807C17.0812 9.39807 19.1749 11.4591 19.1749 13.9939C19.1749 16.5286 17.075 18.5896 14.5062 18.5896ZM23.6562 6.63566C23.6562 7.55236 22.9063 8.28449 21.9812 8.28449C21.0499 8.28449 20.3061 7.54622 20.3061 6.63566C20.3061 5.72512 21.0562 4.98685 21.9812 4.98685C22.9063 4.98685 23.6562 5.72512 23.6562 6.63566ZM28.4125 8.3091C28.3063 6.10041 27.7937 4.14398 26.1499 2.53205C24.5124 0.920142 22.525 0.41565 20.2813 0.304908C17.9687 0.175708 11.0375 0.175708 8.72498 0.304908C6.48748 0.409497 4.49999 0.913989 2.85624 2.52591C1.21249 4.13782 0.706237 6.09426 0.593738 8.30296C0.462488 10.5793 0.462488 17.4023 0.593738 19.6786C0.699988 21.8873 1.21249 23.8438 2.85624 25.4557C4.49999 27.0676 6.48124 27.5722 8.72498 27.6828C11.0375 27.8121 17.9687 27.8121 20.2813 27.6828C22.525 27.5783 24.5124 27.0738 26.1499 25.4557C27.7874 23.8438 28.3 21.8873 28.4125 19.6786C28.5437 17.4023 28.5437 10.5855 28.4125 8.3091ZM25.4249 22.1211C24.9375 23.327 23.9937 24.2559 22.7624 24.7421C20.9186 25.4618 16.5437 25.2958 14.5062 25.2958C12.4687 25.2958 8.08747 25.4557 6.24999 24.7421C5.02499 24.262 4.08123 23.3331 3.58749 22.1211C2.85623 20.3062 3.02499 15.9995 3.02499 13.9939C3.02499 11.9882 2.86248 7.67541 3.58749 5.86662C4.07499 4.66077 5.01873 3.73176 6.24999 3.24572C8.09374 2.52591 12.4687 2.69202 14.5062 2.69202C16.5437 2.69202 20.9249 2.53205 22.7624 3.24572C23.9874 3.7256 24.9312 4.65461 25.4249 5.86662C26.1562 7.68157 25.9875 11.9882 25.9875 13.9939C25.9875 15.9995 26.1562 20.3123 25.4249 22.1211Z" fill="#53B38D"/>
</g>
<defs>
<clipPath id="clip0_116_676">
<rect width="28" height="28" fill="white" transform="translate(0.5)"/>
</clipPath>
</defs>
</svg>
