<svg width="29" height="24" viewBox="0 0 29 24" fill="none" xmlns="http://www.w3.org/2000/svg">
<g clip-path="url(#clip0_116_674)">
<path d="M25.6219 6.29688C25.6395 6.5456 25.6395 6.79437 25.6395 7.04309C25.6395 14.6293 19.8654 23.3704 9.31219 23.3704C6.0609 23.3704 3.04062 22.4289 0.5 20.7943C0.961945 20.8476 1.40606 20.8655 1.88578 20.8655C4.56848 20.8655 7.03805 19.9594 9.01014 18.4137C6.48729 18.3603 4.37307 16.7081 3.64464 14.434C4 14.4872 4.35531 14.5228 4.72843 14.5228C5.24365 14.5228 5.75891 14.4517 6.23857 14.3273C3.60915 13.7943 1.63701 11.4847 1.63701 8.69537V8.62433C2.40093 9.05073 3.28933 9.31721 4.23089 9.35271C2.68521 8.32223 1.67255 6.56337 1.67255 4.57351C1.67255 3.50754 1.95676 2.53039 2.45426 1.67759C5.27914 5.15982 9.52535 7.43389 14.2867 7.68266C14.1979 7.25626 14.1445 6.81215 14.1445 6.36797C14.1445 3.20551 16.703 0.629395 19.8831 0.629395C21.5354 0.629395 23.0278 1.32229 24.076 2.44158C25.3729 2.19285 26.6166 1.71314 27.7182 1.05579C27.2917 2.3883 26.3856 3.5076 25.1954 4.21821C26.3502 4.0939 27.4695 3.77404 28.4999 3.32992C27.7183 4.46692 26.7411 5.47958 25.6219 6.29688Z" fill="#53B38D"/>
</g>
<defs>
<clipPath id="clip0_116_674">
<rect width="28" height="22.9091" fill="white" transform="translate(0.5 0.54541)"/>
</clipPath>
</defs>
</svg>
